<svg width="425" height="132" viewBox="0 0 425 132" fill="none" xmlns="http://www.w3.org/2000/svg">
<path d="M233.62 54.3134L239.674 41.8568H200.438C194.907 41.8568 192.139 44.6249 192.134 50.1612V95.8569C192.134 101.393 194.902 104.161 200.438 104.161H239.674V91.6548H204.591V79.191H220.259L226.377 66.7273H204.591V54.3134H233.62ZM176.771 41.8497H122.757C117.216 41.8497 114.448 44.6178 114.453 50.1541V104.168H126.909V54.3134H143.561V104.168H156.046V54.3134H172.577V104.168H185.069V50.1042C185.069 44.568 182.303 41.7998 176.771 41.7998V41.8497ZM94.6319 75.0389H69.7044V54.2422H94.6319V75.0175V75.0389ZM98.7841 41.7785H65.5237C59.9826 41.7785 57.2145 44.5466 57.2193 50.0829V104.133H69.6759V87.467H94.6034V104.133H107.067V50.0401C107.067 44.4991 104.301 41.731 98.7698 41.7357L98.7841 41.7785ZM0 50.1042V95.7999C0 101.336 2.77051 104.104 8.31153 104.104H41.5719C47.1129 104.104 49.8811 101.336 49.8763 95.7999V75.0317C49.8763 69.5002 47.1082 66.7321 41.5719 66.7273H27.9829L20.8109 79.191H37.377V91.6477H12.4495V54.3134H42.8041L49.8621 41.8568H8.31153C2.77051 41.8283 0 44.5822 0 50.1185" fill="white"/>
<path d="M357.845 104.539V50.4105C357.845 44.86 360.62 42.0847 366.171 42.0847H399.488C405.038 42.0847 407.814 44.86 407.814 50.4105V104.539H395.35L395.307 54.5769H370.38V104.539H357.845Z" fill="white"/>
<path d="M414.323 25.946H411.645V33.3387H410.164V25.946H407.507V24.7423H414.323V25.946Z" fill="white"/>
<path d="M417.393 24.7423L419.871 31.3374L422.35 24.7423H424.28V33.3387H422.791V30.5112L422.941 26.7151L420.398 33.3387H419.33L416.795 26.7223L416.944 30.5112V33.3387H415.456V24.7423H417.393Z" fill="white"/>
<path d="M312.975 56.4002C313.363 56.0566 313.844 55.8357 314.358 55.7654C314.871 55.6951 315.394 55.7786 315.86 56.0052C316.326 56.2319 316.714 56.5916 316.976 57.0388C317.237 57.4861 317.36 58.0009 317.33 58.5181C317.299 59.0354 317.115 59.5319 316.802 59.9449C316.49 60.3579 316.061 60.6689 315.572 60.8386C315.082 61.0083 314.553 61.029 314.052 60.8982C313.55 60.7674 313.099 60.491 312.755 60.1037C312.526 59.8462 312.35 59.5461 312.237 59.2204C312.124 58.8948 312.077 58.5502 312.097 58.2062C312.118 57.8622 312.206 57.5256 312.356 57.2157C312.507 56.9058 312.718 56.6287 312.975 56.4002ZM312.541 63.8001C312.929 63.4566 313.41 63.2357 313.923 63.1654C314.437 63.0951 314.959 63.1785 315.425 63.4052C315.891 63.6318 316.28 63.9915 316.541 64.4388C316.803 64.886 316.926 65.4008 316.895 65.918C316.864 66.4353 316.681 66.9318 316.368 67.3448C316.055 67.7578 315.627 68.0688 315.137 68.2385C314.648 68.4082 314.119 68.4289 313.617 68.2981C313.116 68.1673 312.665 67.8909 312.32 67.5036C312.091 67.2461 311.915 66.946 311.802 66.6203C311.69 66.2947 311.642 65.9501 311.663 65.6061C311.683 65.2621 311.771 64.9255 311.922 64.6156C312.073 64.3057 312.283 64.0286 312.541 63.8001ZM329.485 62.9383C329.485 63.3372 329.428 63.736 329.378 64.1206C329.378 64.3628 329.321 64.6049 329.278 64.8328C329.235 65.0607 329.171 65.4525 329.107 65.7658C328.958 66.4282 328.779 67.0906 328.573 67.7244C328.495 67.9595 328.416 68.2087 328.324 68.4366C328.231 68.6645 328.103 69.0064 327.982 69.2842C327.861 69.5619 327.733 69.8468 327.597 70.1175C327.462 70.3881 327.319 70.6659 327.17 70.9223C327.02 71.1787 326.878 71.4493 326.714 71.7057C326.55 71.9621 326.308 72.3324 326.087 72.6387C325.959 72.8239 325.824 73.0019 325.688 73.1871C325.553 73.3723 325.318 73.6643 325.119 73.8993C324.54 74.5875 323.911 75.2326 323.238 75.8294L312.064 85.7648L311.693 86.0995L310.732 86.9542L310.355 87.2889C310.355 87.2248 310.355 87.1607 310.355 87.0895C310.355 87.0183 310.355 86.9328 310.397 86.8545C310.397 86.6266 310.461 86.3844 310.49 86.1423C310.49 86.0711 310.49 85.9856 310.49 85.893V85.8147V85.6722C310.49 85.3304 310.561 84.96 310.575 84.6395C310.618 83.8276 310.632 83.0014 310.575 82.218C310.575 81.6767 310.511 81.1283 310.447 80.5656C310.447 80.4232 310.447 80.2879 310.397 80.1597L319.656 71.9265C321.312 70.4528 322.58 68.5935 323.346 66.513C324.112 64.4325 324.354 62.1952 324.049 59.9992C323.744 57.8033 322.902 55.7164 321.598 53.9234C320.294 52.1304 318.568 50.6867 316.573 49.7201C314.577 48.7535 312.374 48.2939 310.159 48.382C307.944 48.47 305.784 49.1031 303.872 50.225C301.96 51.3469 300.354 52.9231 299.196 54.814C298.039 56.7048 297.365 58.8519 297.236 61.0652C297.236 61.2931 297.236 61.5139 297.236 61.7418C297.212 65.0777 298.427 68.3036 300.647 70.7941C301.457 71.7102 302.173 72.7051 302.784 73.764C303.019 74.1486 303.232 74.5474 303.439 74.9534C303.443 74.9697 303.443 74.9869 303.439 75.0033C303.589 75.2881 303.724 75.5873 303.852 75.8935C303.869 75.9229 303.884 75.9539 303.895 75.9861C304.03 76.3066 304.165 76.6342 304.279 76.969C304.486 77.5479 304.662 78.1375 304.806 78.7352C304.885 79.0486 304.956 79.3691 305.02 79.6825C305.196 80.5871 305.303 81.5037 305.341 82.4245C305.373 83.0604 305.373 83.6974 305.341 84.3332C305.341 84.4472 305.341 84.5683 305.341 84.6894C305.341 84.8104 305.341 85.0099 305.305 85.1737C305.305 85.1737 305.305 85.2235 305.305 85.252V85.5227C305.305 85.7648 305.241 86.007 305.205 86.2349C305.17 86.4628 305.098 86.8616 305.027 87.1679C304.883 87.8294 304.704 88.4831 304.493 89.1265C304.422 89.3686 304.336 89.6108 304.251 89.8387C304.165 90.0666 304.023 90.4084 303.902 90.6862C303.781 90.964 303.653 91.2489 303.517 91.5195C303.382 91.7901 303.239 92.0679 303.097 92.3314C302.955 92.5949 302.798 92.8513 302.634 93.1077C302.47 93.3641 302.228 93.7345 302.015 94.0407C301.879 94.233 301.744 94.4111 301.609 94.5891C301.473 94.7672 301.238 95.0663 301.039 95.3013C300.462 95.9935 299.833 96.6411 299.159 97.2386C298.486 97.8342 297.772 98.3816 297.022 98.8767C296.773 99.0476 296.523 99.2043 296.253 99.361L295.662 99.6957C295.334 99.8738 294.999 100.045 294.664 100.201C294.33 100.358 294.109 100.451 293.831 100.572C293.553 100.693 293.269 100.793 292.984 100.899C292.407 101.099 291.823 101.277 291.224 101.426L290.398 101.612C289.765 101.737 289.125 101.83 288.482 101.889C288.169 101.889 287.856 101.939 287.535 101.953H286.823C286.424 101.953 286.032 101.953 285.626 101.953C282.824 101.792 280.094 100.999 277.643 99.6316C276.95 99.2478 276.282 98.8221 275.641 98.3567C275.111 97.9635 274.603 97.5427 274.117 97.0961C273.875 96.8825 273.633 96.6546 273.405 96.3839C272.984 95.967 272.587 95.5272 272.215 95.0663C272.045 94.8598 271.881 94.639 271.717 94.4253L271.368 93.941C271.211 93.7131 271.055 93.4852 270.905 93.2288C270.755 92.9724 270.542 92.659 270.378 92.3599C270.044 91.7684 269.747 91.1571 269.488 90.5295C269.352 90.2233 269.231 89.9099 269.11 89.5823C268.989 89.2547 268.889 88.9342 268.79 88.6065C267.954 85.8174 267.776 82.8725 268.27 80.003C268.305 79.7608 268.355 79.5258 268.412 79.2908C268.531 78.7187 268.678 78.153 268.854 77.5957C268.854 77.5387 268.889 77.4818 268.911 77.4248C269.003 77.1541 269.096 76.8835 269.196 76.62C269.409 76.0431 269.659 75.4876 269.908 74.9392C270.043 74.6685 270.186 74.3979 270.335 74.1343C270.485 73.8708 270.627 73.6073 270.791 73.3509C270.955 73.0945 271.197 72.7242 271.418 72.4179C271.546 72.2327 271.681 72.0547 271.817 71.8695C271.952 71.6843 272.187 71.3923 272.386 71.1573C272.969 70.4836 273.6 69.8528 274.274 69.2699L285.456 59.2989L285.869 58.9357L286.766 58.138L287.165 57.7819C287.165 57.9386 287.108 58.0953 287.086 58.2377C287.03 58.601 286.987 58.9499 286.951 59.2633V59.3773V59.712C286.951 59.9542 286.916 60.1892 286.901 60.4242C286.814 61.7852 286.853 63.1512 287.015 64.5052C287.015 64.6405 287.015 64.783 287.065 64.9183C287.115 65.0536 287.065 65.1035 287.065 65.1889C287.065 65.1035 287.065 65.018 287.03 64.9254L277.771 73.1586C276.115 74.6321 274.847 76.4912 274.081 78.5713C273.315 80.6514 273.074 82.8883 273.378 85.084C273.683 87.2797 274.524 89.3664 275.828 91.1594C277.131 92.9523 278.857 94.3962 280.852 95.3631C282.846 96.33 285.049 96.7902 287.264 96.7029C289.479 96.6156 291.638 95.9835 293.55 94.8625C295.463 93.7415 297.069 92.1663 298.228 90.2763C299.386 88.3863 300.06 86.2399 300.191 84.027C300.191 83.792 300.191 83.5641 300.191 83.3148C300.223 79.9731 299.007 76.7399 296.78 74.2483C296.202 73.5939 295.669 72.9015 295.184 72.1758C295.184 72.133 295.135 72.1045 295.12 72.0761C294.978 71.8624 294.85 71.6416 294.707 71.4208C294.678 71.3749 294.652 71.3273 294.629 71.2784C294.501 71.0647 294.38 70.8439 294.266 70.6303L294.166 70.4522L293.845 69.8112L293.746 69.5975L293.468 68.9566C293.432 68.8711 293.404 68.7785 293.361 68.693L293.126 68.0877C293.026 67.7885 292.927 67.4965 292.834 67.1974C292.656 66.5991 292.499 65.9795 292.378 65.3528C292.086 63.8281 291.985 62.2729 292.079 60.7234C292.079 60.6094 292.079 60.4955 292.079 60.3815C292.079 60.2675 292.079 60.0539 292.122 59.8901C292.122 59.8901 292.122 59.8331 292.122 59.8046C292.165 59.4058 292.222 59.0069 292.293 58.6152C292.328 58.3731 292.378 58.138 292.428 57.903C292.556 57.3332 292.699 56.7635 292.877 56.2079C292.877 56.151 292.912 56.094 292.934 56.0299C293.026 55.7664 293.112 55.4886 293.212 55.2322C293.432 54.6553 293.682 54.0998 293.924 53.5514C294.059 53.2807 294.202 53.003 294.344 52.7394C294.486 52.4759 294.643 52.2195 294.807 51.9631C294.971 51.7067 295.213 51.3364 295.427 51.0301C295.562 50.8378 295.697 50.6598 295.832 50.4817C295.968 50.3037 296.203 50.0045 296.402 49.7695C296.979 49.0773 297.608 48.4297 298.283 47.8323C298.957 47.2388 299.671 46.6915 300.419 46.1942C300.668 46.0233 300.918 45.8666 301.181 45.717C301.445 45.5675 301.573 45.4891 301.779 45.3751C302.107 45.1971 302.442 45.0262 302.777 44.8695C303.111 44.7128 303.325 44.6202 303.603 44.4991C303.88 44.3781 304.173 44.2783 304.457 44.1786C304.742 44.0789 305.034 43.9792 305.326 43.8937C305.618 43.8083 305.917 43.7228 306.217 43.6445C306.808 43.502 307.413 43.381 308.033 43.2955C308.346 43.2456 308.645 43.21 308.959 43.1815C309.272 43.153 309.45 43.1388 309.671 43.1317C310.382 43.0887 311.096 43.0887 311.807 43.1317L312.769 43.21L313.481 43.3026C313.951 43.3738 314.414 43.4664 314.906 43.5661C315.126 43.616 315.361 43.673 315.618 43.7371C315.874 43.8012 316.066 43.8581 316.294 43.9294C316.736 44.0647 317.17 44.2214 317.598 44.3781C318.025 44.5347 318.452 44.7342 318.858 44.9336C319.423 45.1991 319.972 45.4964 320.504 45.8238C321.501 46.4282 322.439 47.127 323.303 47.9106C323.984 48.5184 324.617 49.178 325.197 49.8835C325.475 50.2182 325.738 50.5957 326.002 50.9162C326.13 51.0942 326.251 51.2723 326.372 51.4575C326.622 51.8207 326.849 52.1697 327.084 52.5685C327.319 52.9674 327.505 53.3448 327.697 53.7365C327.804 53.9645 327.911 54.1924 328.003 54.4488C328.167 54.8191 328.309 55.161 328.445 55.5598C328.852 56.7161 329.147 57.9085 329.328 59.1209C329.42 59.7405 329.47 60.3673 329.506 61.0011C329.541 61.6369 329.541 62.2741 329.506 62.9099L329.485 62.9383ZM309.073 59.8545C308.685 60.198 308.204 60.4189 307.69 60.4892C307.177 60.5595 306.654 60.4761 306.188 60.2494C305.722 60.0228 305.334 59.6631 305.072 59.2158C304.811 58.7686 304.688 58.2538 304.718 57.7366C304.749 57.2193 304.933 56.7228 305.246 56.3098C305.559 55.8968 305.987 55.5858 306.476 55.4161C306.966 55.2464 307.495 55.2257 307.996 55.3564C308.498 55.4872 308.949 55.7637 309.293 56.151C309.522 56.4085 309.698 56.7086 309.811 57.0342C309.924 57.3598 309.971 57.7045 309.951 58.0485C309.93 58.3925 309.842 58.7291 309.692 59.039C309.541 59.3488 309.33 59.626 309.073 59.8545ZM308.638 67.2615C308.25 67.6051 307.769 67.826 307.256 67.8963C306.742 67.9666 306.22 67.8831 305.754 67.6565C305.288 67.4298 304.9 67.0701 304.638 66.6229C304.376 66.1756 304.253 65.6608 304.284 65.1436C304.315 64.6263 304.498 64.1298 304.811 63.7168C305.124 63.3038 305.552 62.9928 306.042 62.8231C306.532 62.6534 307.06 62.6327 307.562 62.7635C308.063 62.8943 308.515 63.1707 308.859 63.558C309.32 64.0789 309.555 64.7612 309.514 65.4553C309.472 66.1495 309.157 66.799 308.638 67.2615ZM292.628 77.9945C293.086 78.5151 293.32 79.1958 293.279 79.8882C293.237 80.5807 292.924 81.2287 292.407 81.6909L290.448 83.4359L292.193 85.3944C292.655 85.9148 292.891 86.5974 292.85 87.2919C292.808 87.9865 292.493 88.6361 291.972 89.098C291.452 89.5598 290.769 89.796 290.075 89.7546C289.38 89.7132 288.731 89.3976 288.269 88.8772L286.531 86.9186L284.572 88.6635C284.315 88.8927 284.015 89.0689 283.69 89.1822C283.365 89.2954 283.02 89.3435 282.676 89.3237C282.332 89.3039 281.996 89.2165 281.686 89.0665C281.376 88.9166 281.098 88.707 280.869 88.4498C280.64 88.1926 280.463 87.8928 280.35 87.5675C280.237 87.2422 280.189 86.8977 280.209 86.5538C280.229 86.2099 280.316 85.8733 280.466 85.5632C280.616 85.253 280.825 84.9755 281.083 84.7463L283.048 83.0014L281.303 81.0428C281.07 80.7864 280.89 80.4862 280.773 80.1596C280.656 79.833 280.606 79.4865 280.624 79.1402C280.642 78.7939 280.729 78.4547 280.88 78.1422C281.03 77.8297 281.241 77.5501 281.5 77.3197C281.759 77.0893 282.061 76.9126 282.389 76.7998C282.717 76.6871 283.064 76.6406 283.41 76.6629C283.756 76.6853 284.095 76.7761 284.405 76.9301C284.716 77.0841 284.993 77.2982 285.22 77.5601L286.965 79.5187L288.924 77.7738C289.445 77.3131 290.127 77.0777 290.821 77.119C291.516 77.1604 292.165 77.4753 292.628 77.9945ZM348.016 40.9096L301.509 14.1018C300.672 13.6186 299.723 13.3643 298.756 13.3643C297.79 13.3643 296.84 13.6186 296.003 14.1018L249.517 40.9381C248.681 41.4226 247.987 42.1185 247.504 42.9561C247.022 43.7936 246.768 44.7433 246.768 45.7099V99.3823C246.767 100.349 247.021 101.299 247.503 102.137C247.986 102.974 248.68 103.67 249.517 104.154L296.003 130.99C296.84 131.474 297.79 131.728 298.756 131.728C299.723 131.728 300.672 131.474 301.509 130.99L347.995 104.168C348.834 103.686 349.53 102.991 350.014 102.153C350.498 101.315 350.752 100.364 350.751 99.3966V45.7099C350.752 44.7425 350.497 43.792 350.013 42.9543C349.529 42.1166 348.833 41.4212 347.995 40.9381" fill="white"/>
<path d="M336.528 46.0802L348.444 35.4754L340.873 36.9283L356.591 24.0728L340.709 29.9628L361.862 1.75917L309.991 24.1084L316.138 0L298.617 21.053L336.528 46.0802Z" fill="white"/>
</svg>
