<svg width="57" height="65" viewBox="0 0 57 65" fill="none" xmlns="http://www.w3.org/2000/svg">
<path d="M32.533 27.7139C32.7236 27.545 32.9599 27.4365 33.2122 27.402C33.4644 27.3674 33.7213 27.4084 33.9502 27.5198C34.1792 27.6312 34.37 27.8079 34.4986 28.0277C34.6271 28.2475 34.6876 28.5004 34.6725 28.7546C34.6573 29.0087 34.5672 29.2527 34.4134 29.4557C34.2597 29.6586 34.0492 29.8114 33.8086 29.8948C33.5681 29.9782 33.3082 29.9884 33.0618 29.9241C32.8154 29.8598 32.5937 29.724 32.4245 29.5337C32.312 29.4072 32.2255 29.2597 32.17 29.0997C32.1146 28.9397 32.0912 28.7703 32.1013 28.6013C32.1114 28.4323 32.1547 28.2669 32.2288 28.1146C32.3028 27.9623 32.4062 27.8262 32.533 27.7139ZM32.3195 31.35C32.5101 31.1812 32.7464 31.0727 32.9987 31.0381C33.2509 31.0036 33.5078 31.0446 33.7367 31.156C33.9657 31.2673 34.1565 31.4441 34.2851 31.6638C34.4136 31.8836 34.4742 32.1366 34.459 32.3907C34.4439 32.6449 34.3537 32.8889 34.2 33.0918C34.0462 33.2948 33.8357 33.4476 33.5952 33.531C33.3546 33.6143 33.0947 33.6245 32.8483 33.5603C32.602 33.496 32.3802 33.3601 32.211 33.1699C32.0985 33.0433 32.012 32.8958 31.9566 32.7358C31.9011 32.5758 31.8777 32.4065 31.8878 32.2375C31.8979 32.0684 31.9412 31.903 32.0153 31.7508C32.0893 31.5985 32.1927 31.4623 32.3195 31.35ZM40.6452 30.9266C40.6452 31.1226 40.6172 31.3185 40.5927 31.5075C40.5927 31.6265 40.5647 31.7455 40.5437 31.8575C40.5227 31.9695 40.4912 32.162 40.4597 32.3159C40.3862 32.6414 40.2987 32.9669 40.1972 33.2784C40.1587 33.3938 40.1202 33.5163 40.0747 33.6283C40.0293 33.7403 39.9662 33.9083 39.9067 34.0448C39.8473 34.1813 39.7843 34.3213 39.7178 34.4542C39.6513 34.5872 39.5813 34.7237 39.5078 34.8497C39.4343 34.9757 39.3643 35.1087 39.2838 35.2347C39.2033 35.3607 39.0843 35.5426 38.9758 35.6931C38.9129 35.7841 38.8464 35.8716 38.7799 35.9626C38.7134 36.0536 38.5979 36.1971 38.4999 36.3126C38.2154 36.6507 37.9066 36.9677 37.576 37.261L32.085 42.143L31.903 42.3075L31.4306 42.7275L31.2451 42.892C31.2451 42.8605 31.2451 42.829 31.2451 42.794C31.2451 42.759 31.2451 42.717 31.2661 42.6785C31.2661 42.5665 31.2976 42.4475 31.3116 42.3285C31.3116 42.2935 31.3116 42.2515 31.3116 42.206V42.1675V42.0975C31.3116 41.9295 31.3466 41.7476 31.3535 41.5901C31.3745 41.1911 31.3815 40.7851 31.3535 40.4002C31.3535 40.1342 31.3221 39.8647 31.2906 39.5883C31.2906 39.5183 31.2906 39.4518 31.2661 39.3888L35.8156 35.3432C36.6296 34.619 37.2524 33.7054 37.6289 32.6831C38.0054 31.6608 38.124 30.5614 37.9741 29.4824C37.8243 28.4033 37.4107 27.3778 36.7699 26.4968C36.1291 25.6158 35.2809 24.9064 34.3005 24.4314C33.32 23.9564 32.2376 23.7306 31.149 23.7739C30.0605 23.8172 28.9994 24.1282 28.0598 24.6795C27.1201 25.2308 26.331 26.0053 25.7621 26.9344C25.1933 27.8635 24.8624 28.9186 24.7987 30.0062C24.7987 30.1181 24.7987 30.2266 24.7987 30.3386C24.787 31.9778 25.3844 33.563 26.475 34.7867C26.8729 35.2369 27.2246 35.7258 27.5249 36.2461C27.6404 36.4351 27.7454 36.631 27.8469 36.8305C27.849 36.8386 27.849 36.847 27.8469 36.855C27.9204 36.995 27.9869 37.142 28.0499 37.2925C28.0583 37.3069 28.0653 37.3222 28.0709 37.338C28.1374 37.4955 28.2039 37.6564 28.2599 37.8209C28.3615 38.1054 28.448 38.3951 28.5188 38.6888C28.5573 38.8428 28.5923 39.0003 28.6238 39.1543C28.7102 39.5988 28.7629 40.0492 28.7813 40.5017C28.797 40.8141 28.797 41.1271 28.7813 41.4396C28.7813 41.4956 28.7813 41.5551 28.7813 41.6146C28.7813 41.6741 28.7813 41.7721 28.7638 41.8526C28.7638 41.8526 28.7638 41.877 28.7638 41.891V42.024C28.7638 42.143 28.7323 42.262 28.7148 42.374C28.6973 42.486 28.6623 42.682 28.6273 42.8325C28.5563 43.1575 28.4687 43.4788 28.3648 43.7949C28.3298 43.9139 28.2879 44.0328 28.2459 44.1448C28.2039 44.2568 28.1339 44.4248 28.0744 44.5613C28.0149 44.6978 27.9519 44.8378 27.8854 44.9708C27.8189 45.1037 27.7489 45.2402 27.6789 45.3697C27.6089 45.4992 27.5319 45.6252 27.4514 45.7512C27.3709 45.8772 27.2519 46.0592 27.147 46.2096C27.0805 46.3041 27.014 46.3916 26.9475 46.4791C26.881 46.5666 26.7655 46.7136 26.6675 46.8291C26.384 47.1692 26.0751 47.4874 25.7436 47.781C25.413 48.0737 25.0622 48.3427 24.6937 48.5859C24.5712 48.6699 24.4487 48.7469 24.3157 48.8239L24.0253 48.9884C23.8643 49.0759 23.6998 49.1599 23.5353 49.2369C23.3708 49.3138 23.2623 49.3593 23.1258 49.4188C22.9893 49.4783 22.8494 49.5273 22.7094 49.5798C22.4259 49.6778 22.1389 49.7653 21.8449 49.8388L21.439 49.9298C21.1277 49.9914 20.8135 50.037 20.4976 50.0663C20.3436 50.0663 20.1896 50.0908 20.0321 50.0978H19.6822C19.4862 50.0978 19.2937 50.0978 19.0942 50.0978C17.7171 50.0187 16.3758 49.6286 15.1711 48.9569C14.8308 48.7683 14.5024 48.5591 14.1877 48.3304C13.9274 48.1372 13.6774 47.9305 13.4387 47.711C13.3197 47.606 13.2008 47.494 13.0888 47.361C12.8821 47.1562 12.687 46.94 12.5043 46.7136C12.4203 46.6121 12.3398 46.5036 12.2594 46.3986L12.0879 46.1606C12.0109 46.0487 11.9339 45.9367 11.8604 45.8107C11.7869 45.6847 11.6819 45.5307 11.6014 45.3837C11.4375 45.0931 11.2914 44.7927 11.164 44.4843C11.0975 44.3338 11.038 44.1798 10.9785 44.0188C10.919 43.8579 10.87 43.7004 10.821 43.5394C10.4101 42.1689 10.3227 40.7218 10.5655 39.3118C10.583 39.1928 10.6075 39.0773 10.6355 38.9618C10.6938 38.6807 10.7662 38.4027 10.8525 38.1289C10.8525 38.1009 10.87 38.0729 10.8805 38.0449C10.926 37.9119 10.9715 37.7789 11.0205 37.6494C11.1255 37.366 11.2479 37.093 11.3704 36.8235C11.4369 36.6905 11.5069 36.5575 11.5804 36.4281C11.6539 36.2986 11.7239 36.1691 11.8044 36.0431C11.8849 35.9171 12.0039 35.7351 12.1124 35.5846C12.1754 35.4936 12.2418 35.4062 12.3083 35.3152C12.3748 35.2242 12.4903 35.0807 12.5883 34.9652C12.8747 34.6341 13.1847 34.3242 13.5157 34.0378L19.0102 29.1382L19.2132 28.9598L19.6542 28.5678L19.8501 28.3928C19.8501 28.4698 19.8221 28.5468 19.8116 28.6168C19.7836 28.7953 19.7626 28.9668 19.7451 29.1207V29.1767V29.3412C19.7451 29.4602 19.7277 29.5757 19.7207 29.6912C19.6779 30.3599 19.6967 31.0312 19.7766 31.6965C19.7766 31.763 19.7766 31.833 19.8011 31.8995C19.8256 31.966 19.8011 31.9905 19.8011 32.0325C19.8011 31.9905 19.8011 31.9485 19.7836 31.903L15.2341 35.9486C14.4203 36.6726 13.7976 37.5862 13.4211 38.6083C13.0446 39.6304 12.926 40.7296 13.0757 41.8085C13.2254 42.8874 13.6388 43.9128 14.2793 44.7938C14.9199 45.6748 15.7678 46.3843 16.7479 46.8594C17.7281 47.3346 18.8103 47.5607 19.8987 47.5178C20.9871 47.4749 22.0481 47.1643 22.9878 46.6134C23.9275 46.0626 24.7169 45.2886 25.2861 44.3599C25.8553 43.4312 26.1867 42.3765 26.251 41.2891C26.251 41.1736 26.251 41.0616 26.251 40.9391C26.2668 39.2971 25.669 37.7084 24.5747 36.4841C24.2909 36.1625 24.029 35.8222 23.7908 35.4657C23.7908 35.4447 23.7663 35.4307 23.7593 35.4167C23.6893 35.3117 23.6263 35.2032 23.5563 35.0947C23.5421 35.0721 23.5293 35.0487 23.5178 35.0247C23.4548 34.9197 23.3953 34.8112 23.3393 34.7062L23.2903 34.6187L23.1328 34.3038L23.0838 34.1988L22.9474 33.8838C22.9299 33.8418 22.9158 33.7963 22.8948 33.7543L22.7794 33.4568C22.7304 33.3099 22.6814 33.1664 22.6359 33.0194C22.5484 32.7254 22.4714 32.4209 22.4119 32.113C22.2682 31.3638 22.2188 30.5996 22.2649 29.8382C22.2649 29.7822 22.2649 29.7262 22.2649 29.6702C22.2649 29.6142 22.2649 29.5092 22.2859 29.4287C22.2859 29.4287 22.2859 29.4007 22.2859 29.3867C22.3069 29.1907 22.3349 28.9948 22.3699 28.8023C22.3874 28.6833 22.4119 28.5678 22.4364 28.4523C22.4994 28.1723 22.5694 27.8924 22.6569 27.6194C22.6569 27.5914 22.6744 27.5634 22.6849 27.5319C22.7304 27.4024 22.7724 27.2659 22.8214 27.1399C22.9298 26.8565 23.0523 26.5835 23.1713 26.314C23.2378 26.181 23.3078 26.0445 23.3778 25.915C23.4478 25.7856 23.5248 25.6596 23.6053 25.5336C23.6858 25.4076 23.8048 25.2256 23.9098 25.0751C23.9763 24.9806 24.0428 24.8931 24.1092 24.8057C24.1757 24.7182 24.2912 24.5712 24.3892 24.4557C24.6728 24.1156 24.9816 23.7973 25.3131 23.5038C25.6446 23.2121 25.9953 22.9432 26.363 22.6988C26.4855 22.6149 26.608 22.5379 26.7375 22.4644C26.867 22.3909 26.93 22.3524 27.0315 22.2964C27.1924 22.2089 27.3569 22.1249 27.5214 22.0479C27.6859 21.9709 27.7909 21.9254 27.9274 21.8659C28.0639 21.8064 28.2074 21.7574 28.3473 21.7084C28.4873 21.6594 28.6308 21.6105 28.7743 21.5685C28.9178 21.5265 29.0648 21.4845 29.2118 21.446C29.5022 21.376 29.7997 21.3165 30.1042 21.2745C30.2582 21.25 30.4052 21.2325 30.5591 21.2185C30.7131 21.2045 30.8006 21.1975 30.9091 21.194C31.2588 21.1728 31.6094 21.1728 31.959 21.194L32.4315 21.2325L32.7814 21.278C33.0124 21.313 33.2399 21.3585 33.4814 21.4075C33.5898 21.432 33.7053 21.46 33.8313 21.4915C33.9573 21.523 34.0518 21.551 34.1638 21.586C34.3808 21.6524 34.5943 21.7294 34.8042 21.8064C35.0142 21.8834 35.2242 21.9814 35.4237 22.0794C35.7012 22.2099 35.9711 22.3559 36.2321 22.5169C36.7223 22.8138 37.1829 23.1572 37.6075 23.5423C37.9423 23.8409 38.2536 24.165 38.5384 24.5117C38.6749 24.6762 38.8044 24.8616 38.9339 25.0191C38.9968 25.1066 39.0563 25.1941 39.1158 25.2851C39.2383 25.4636 39.3503 25.6351 39.4658 25.8311C39.5813 26.027 39.6723 26.2125 39.7668 26.405C39.8193 26.517 39.8718 26.629 39.9173 26.755C39.9977 26.937 40.0677 27.1049 40.1342 27.3009C40.3342 27.8691 40.4795 28.455 40.5682 29.0508C40.6137 29.3552 40.6382 29.6632 40.6557 29.9747C40.6732 30.2871 40.6732 30.6002 40.6557 30.9126L40.6452 30.9266ZM30.6151 29.4112C30.4245 29.58 30.1882 29.6886 29.9359 29.7231C29.6836 29.7577 29.4268 29.7167 29.1978 29.6053C28.9689 29.4939 28.7781 29.3172 28.6495 29.0974C28.521 28.8776 28.4604 28.6247 28.4756 28.3705C28.4907 28.1164 28.5809 27.8724 28.7346 27.6694C28.8884 27.4665 29.0989 27.3137 29.3394 27.2303C29.58 27.1469 29.8399 27.1367 30.0863 27.201C30.3326 27.2653 30.5544 27.4011 30.7236 27.5914C30.8361 27.7179 30.9226 27.8654 30.9781 28.0254C31.0335 28.1854 31.0569 28.3548 31.0468 28.5238C31.0367 28.6928 30.9934 28.8582 30.9193 29.0105C30.8452 29.1628 30.7419 29.2989 30.6151 29.4112ZM30.4016 33.0509C30.2111 33.2197 29.9747 33.3282 29.7224 33.3628C29.4702 33.3973 29.2133 33.3563 28.9844 33.245C28.7554 33.1336 28.5646 32.9568 28.436 32.7371C28.3075 32.5173 28.2469 32.2643 28.2621 32.0102C28.2772 31.756 28.3674 31.512 28.5212 31.3091C28.6749 31.1061 28.8854 30.9533 29.1259 30.87C29.3665 30.7866 29.6264 30.7764 29.8728 30.8406C30.1192 30.9049 30.341 31.0408 30.5101 31.231C30.7365 31.487 30.8522 31.8223 30.8318 32.1634C30.8115 32.5045 30.6568 32.8236 30.4016 33.0509ZM22.5344 38.3249C22.7597 38.5807 22.8747 38.9152 22.8544 39.2554C22.834 39.5956 22.68 39.9141 22.4259 40.1412L21.4635 40.9986L22.3209 41.961C22.5478 42.2168 22.6639 42.5521 22.6436 42.8934C22.6232 43.2347 22.4681 43.5539 22.2124 43.7809C21.9567 44.0078 21.6213 44.1239 21.28 44.1035C20.9387 44.0832 20.6195 43.9281 20.3926 43.6724L19.5387 42.71L18.5763 43.5674C18.4499 43.68 18.3025 43.7666 18.1427 43.8222C17.9828 43.8779 17.8136 43.9015 17.6446 43.8918C17.4756 43.882 17.3102 43.8391 17.1578 43.7654C17.0054 43.6918 16.869 43.5888 16.7564 43.4624C16.6438 43.336 16.5572 43.1887 16.5016 43.0288C16.4459 42.869 16.4223 42.6997 16.432 42.5307C16.4418 42.3618 16.4847 42.1963 16.5584 42.0439C16.6321 41.8916 16.735 41.7552 16.8614 41.6426L17.8273 40.7851L16.9699 39.8227C16.8552 39.6967 16.7666 39.5492 16.7093 39.3887C16.652 39.2282 16.6272 39.058 16.6362 38.8878C16.6451 38.7177 16.6878 38.551 16.7617 38.3974C16.8356 38.2439 16.9392 38.1065 17.0665 37.9933C17.1939 37.88 17.3424 37.7932 17.5036 37.7378C17.6647 37.6824 17.8352 37.6596 18.0053 37.6705C18.1753 37.6815 18.3415 37.7262 18.4942 37.8018C18.6469 37.8775 18.783 37.9827 18.8947 38.1114L19.7521 39.0738L20.7146 38.2164C20.9705 37.99 21.3058 37.8743 21.6469 37.8947C21.988 37.915 22.3071 38.0697 22.5344 38.3249ZM49.7513 20.1021L26.8985 6.92933C26.4872 6.69189 26.0207 6.56689 25.5459 6.56689C25.071 6.56689 24.6045 6.69189 24.1932 6.92933L1.35087 20.1161C0.939896 20.3542 0.598754 20.6962 0.361653 21.1077C0.124552 21.5193 -0.000166901 21.9859 1.63994e-06 22.4609V48.8344C-0.000521336 49.3094 0.124047 49.7762 0.361183 50.1878C0.598319 50.5994 0.939657 50.9413 1.35087 51.1792L24.1932 64.3659C24.6045 64.6034 25.071 64.7284 25.5459 64.7284C26.0207 64.7284 26.4872 64.6034 26.8985 64.3659L49.7408 51.1862C50.1529 50.9491 50.4952 50.6074 50.733 50.1957C50.9708 49.784 51.0957 49.3168 51.0952 48.8414V22.4609C51.0954 21.9855 50.9703 21.5185 50.7325 21.1068C50.4947 20.6952 50.1527 20.3535 49.7408 20.1161" fill="white"/>
<path d="M44.1073 22.6429L49.9622 17.4319L46.2421 18.1458L53.9658 11.8289L46.1616 14.7231L56.5556 0.864419L31.0675 11.8464L34.0877 0L25.4785 10.345L44.1073 22.6429Z" fill="white"/>
</svg>
