<svg width="172" height="155" viewBox="0 0 172 155" fill="none" xmlns="http://www.w3.org/2000/svg">
<path d="M135.252 125.916C135.252 142.959 122.984 154.961 106.117 154.961C89.2507 154.961 76.9678 142.944 76.9678 125.916C76.9678 109.988 90.9413 98.8205 106.093 98.8205C121.245 98.8205 135.252 109.988 135.252 125.916ZM91.2407 125.983C91.2407 135.055 97.9304 141.699 106.117 141.699C114.304 141.699 121.004 135.012 121.004 125.983C121.004 118.717 114.314 112.083 106.117 112.083C97.9207 112.083 91.2407 118.717 91.2407 125.983ZM109.837 12.0116C109.571 12.0019 109.262 11.9971 108.948 11.9971C102.215 11.9971 95.9839 14.1263 90.8833 17.7473L90.9799 17.6846C87.821 16.072 84.1067 15.0967 80.1654 15.0195H80.1412V65.5791H96.5007V41.4484C96.6214 36.712 95.5878 27.0462 106.359 27.0462C116.719 27.0462 115.623 36.7217 115.715 41.4484V65.5791H132.441V34.9836C132.383 19.2344 121.569 12.0116 109.837 12.0116ZM59.1255 65.1929C68.4476 58.7619 74.2002 47.9953 74.2002 34.8532C74.2243 14.7008 56.4931 0.477295 37.2694 0.477295C18.0457 0.477295 0.314453 14.7008 0.314453 34.8436C0.314453 56.4541 15.8142 71.6915 37.2694 71.6915C37.3032 71.6915 37.337 71.6915 37.3757 71.6915C41.3074 71.6915 45.1086 71.1411 48.7119 70.1175L48.4221 70.19V56.7148L59.1255 65.1929ZM18.3886 34.9305C18.3886 25.7137 26.8992 17.308 37.2694 17.308C47.6396 17.308 56.1502 25.7233 56.1502 34.9305C56.1502 46.4455 47.6444 54.827 37.2694 54.827C26.8944 54.827 18.3886 46.4455 18.3886 34.9305ZM64.1102 75.6022L53.3826 67.0855V101.495C49.7214 99.8102 45.4467 98.8108 40.9403 98.777H40.9258C25.7593 98.777 11.8004 109.925 11.8004 125.872C11.8004 142.915 22.8709 154.918 39.7762 154.918C46.7219 154.889 53.2038 152.953 58.7439 149.607L58.5797 149.699C61.3908 151.509 64.825 152.586 68.5104 152.586C69.0562 152.586 69.602 152.562 70.1381 152.514L70.0705 152.518V80.3676L64.1102 75.6022ZM53.426 134.679C50.8226 138.898 46.2244 141.67 40.9789 141.67C40.9741 141.67 40.9741 141.67 40.9692 141.67C32.7967 141.67 26.0926 134.983 26.0926 125.954C26.0926 118.688 32.7823 112.054 40.9692 112.054C46.1036 112.078 50.6391 114.628 53.3922 118.529L53.426 118.577C54.8944 120.643 55.7734 123.212 55.7783 125.988C55.7783 126.041 55.7783 126.099 55.7783 126.162C55.7783 129.319 54.8847 132.269 53.3391 134.775L53.3777 134.703L53.426 134.679ZM160.977 100.124V85.2439H144.251V100.1H139.3V114.589H144.261V149.655C149.414 153.301 152.868 154.884 160.987 154.971V114.575H171.749V100.085L160.977 100.124ZM87.2269 76.2492V71.3873H81.7303V76.2347H80.146V80.8359H81.7206V91.6025C83.1117 92.6647 84.8747 93.3068 86.7874 93.3068C86.9371 93.3068 87.0917 93.302 87.2414 93.2923H87.2221V80.8407H90.4534V76.2396L87.2269 76.2492ZM99.4905 71.4018V78.8274H99.5581C100.679 77.2148 102.524 76.172 104.61 76.172C104.693 76.172 104.775 76.172 104.852 76.1768H104.842C109.044 76.1768 111.088 78.9626 111.088 83.163V93.3165H105.2V84.8094C105.2 82.8685 104.91 80.8649 102.548 80.8649C100.186 80.8649 99.4712 82.8733 99.4712 84.8094V93.3165H93.5833V71.3922L99.4905 71.4018ZM132.383 86.0357H119.994C119.98 86.1468 119.975 86.2723 119.975 86.4027C119.975 88.2518 121.472 89.7485 123.322 89.7485C123.453 89.7485 123.578 89.7389 123.704 89.7292H123.689C123.757 89.734 123.839 89.7389 123.921 89.7389C125.027 89.7389 125.988 89.1305 126.491 88.2277L126.5 88.2132H132.166C131.229 92.1239 127.505 93.9103 123.723 93.9103C118.226 93.9103 114.111 90.801 114.111 85.0846C114.111 79.513 117.903 76.1671 123.298 76.1671C129.065 76.1671 132.388 79.7206 132.388 85.3839L132.383 86.0357ZM126.921 82.6947C126.5 81.1787 125.133 80.0827 123.51 80.0827C121.888 80.0827 120.521 81.1787 120.105 82.6706L120.1 82.6947H126.921Z" fill="white"/>
</svg>
