<?xml version="1.0" encoding="UTF-8"?>
<svg width="170px" height="173px" viewBox="0 0 53 60" version="1.1" xmlns="http://www.w3.org/2000/svg" xmlns:xlink="http://www.w3.org/1999/xlink">
    <!-- Generator: Sketch 53 (72520) - https://sketchapp.com -->
    <title>ic_logo</title>
    <desc>Created with Sketch.</desc>
    <defs>
        <polygon id="path-1" points="0.0003 0.3025 52.7555 0.3025 52.7555 59 0.0003 59"></polygon>
    </defs>
    <g id="Page-1" stroke="none" stroke-width="1" fill="none" fill-rule="evenodd">
        <g id="Asset-sheet" transform="translate(-95.000000, -183.000000)">
            <g id="ic_logo" transform="translate(95.000000, 183.000000)">
                <g id="Group-3">
                    <mask id="mask-2" fill="white">
                        <use xlink:href="#path-1"></use>
                    </mask>
                    <g id="Clip-2"></g>
                    <path d="M26.3778,0.30225 C25.1378,0.30225 23.8978,0.62325 22.7863,1.26475 L3.5918,12.34625 C1.3693,13.62925 0.0003,16.00075 0.0003,18.56725 L0.0003,40.73275 C0.0003,43.29925 1.3688,45.67025 3.5913,46.95375 L22.7858,58.03725 C23.8973,58.67925 25.1373,59.00025 26.3778,59.00025 C27.6178,59.00025 28.8583,58.67925 29.9703,58.03725 L49.1643,46.95375 C51.3868,45.67025 52.7558,43.29925 52.7558,40.73275 L52.7558,18.56725 C52.7558,16.00075 51.3863,13.62925 49.1638,12.34625 L29.9693,1.26475 C28.8578,0.62325 27.6178,0.30225 26.3778,0.30225 M26.3778,3.47225 C27.0813,3.47225 27.7753,3.65825 28.3848,4.01025 L47.5788,15.09175 C48.8163,15.80625 49.5858,17.13775 49.5858,18.56725 L49.5858,40.73275 C49.5858,42.16225 48.8168,43.49375 47.5793,44.20875 L28.3848,55.29175 C27.7753,55.64425 27.0818,55.83025 26.3778,55.83025 C25.6743,55.83025 24.9803,55.64425 24.3708,55.29175 L5.1768,44.20875 C3.9388,43.49375 3.1698,42.16225 3.1698,40.73275 L3.1698,18.56725 C3.1698,17.13775 3.9393,15.80625 5.1768,15.09175 L24.3713,4.01025 C24.9803,3.65825 25.6743,3.47225 26.3778,3.47225" id="Fill-1" fill="#1B1D24" mask="url(#mask-2)"></path>
                </g>
                <path d="M38.8920066,17.1583548 L33.8205653,25.7633476 L31.0441101,24.1941403 L34.0244398,19.1389125 L22.5078194,19.1389125 C19.5483347,19.1389125 17.1430226,21.5308206 17.2040324,24.4416478 C17.2447056,26.178682 18.2600107,27.7518733 19.7969497,28.6188964 L27.6646744,33.0710426 C28.1786822,33.3628723 28.4679704,33.8897595 28.4679704,34.4325827 C28.4679704,34.6960262 28.3983175,34.9679358 28.251894,35.2154433 C27.8075391,35.9659337 26.8288399,36.2219072 26.0626583,35.7906367 L21.5738607,33.2508217 L18.8019813,31.6816144 L18.0927421,31.2822161 C16.828822,30.5630998 15.8058907,29.5451818 15.0961431,28.3430028 C14.3909713,27.1453057 14,25.7678296 14,24.3340791 C14,19.730042 17.8075212,16 22.5078194,16 L38.2112387,16 C38.8182864,16 39.1975641,16.6429218 38.8920066,17.1583548" id="Fill-4" fill="#1B1D24"></path>
                <path d="M38,34.6694505 C38,39.2697546 34.188733,43 29.4928983,43 L13.7867367,43 C13.1832988,43 12.8040531,42.3570431 13.1060262,41.8455662 L18.1770397,33.2401041 L20.9527524,34.808899 L17.9772494,39.8609163 L29.4928983,39.8609163 C32.4521333,39.8609163 34.8531756,37.4688777 34.7916625,34.5573938 C34.7550597,32.8202648 33.7362817,31.2469877 32.1994723,30.3809133 L24.3319029,25.9280262 C23.8184469,25.6406628 23.5332501,25.113249 23.5332501,24.5703962 C23.5332501,24.302456 23.6023887,24.0310296 23.7452413,23.7835086 C24.1895587,23.0324792 25.1717339,22.7769898 25.9378509,23.2122681 L33.9030278,27.7169503 C35.1709083,28.4356078 36.1942617,29.4540793 36.899374,30.6558259 C37.6085533,31.8540864 38,33.2356219 38,34.6694505" id="Fill-6" fill="#1B1D24"></path>
            </g>
        </g>
    </g>
</svg>