<svg width="420" height="85" viewBox="0 0 420 85" fill="none" xmlns="http://www.w3.org/2000/svg">
<path d="M62.1927 58.3628L29.8213 2.28981C29.4718 1.66056 28.7027 1.17114 27.9336 1.17114H1.2255C0.106839 1.17114 -0.31266 1.94022 0.246672 2.91905L46.9509 83.8124C47.4403 84.7214 48.2793 84.7214 48.8386 83.8124L62.2626 60.5303C62.6122 59.8311 62.6122 58.9921 62.1927 58.3628Z" fill="white"/>
<path d="M63.3118 1.17114C62.6126 1.17114 61.9834 1.73048 61.9834 2.49956V25.3623C61.9834 26.0614 62.5427 26.6907 63.3118 26.6907H86.1745C86.8737 26.6907 87.5029 26.1313 87.5029 25.3623V2.49956C87.5029 1.8004 86.9436 1.17114 86.1745 1.17114H63.3118Z" fill="white"/>
<path d="M145.603 83.323C146.302 83.323 146.931 82.7637 146.931 81.9946V2.49956C146.931 1.8004 146.372 1.17114 145.603 1.17114H122.67C121.971 1.17114 121.342 1.73048 121.342 2.49956V81.9946C121.342 82.6938 121.901 83.323 122.67 83.323H145.603Z" fill="white"/>
<path d="M334.727 58.3628L302.356 2.28981C302.006 1.66056 301.237 1.17114 300.468 1.17114H273.76C272.641 1.17114 272.222 1.94022 272.781 2.91905L319.485 83.8124C319.974 84.7214 320.813 84.7214 321.373 83.8124L334.797 60.5303C335.146 59.8311 335.146 58.9921 334.727 58.3628Z" fill="white"/>
<path d="M335.846 1.17114C335.147 1.17114 334.518 1.73048 334.518 2.49956V25.3623C334.518 26.0614 335.077 26.6907 335.846 26.6907H358.709C359.408 26.6907 360.037 26.1313 360.037 25.3623V2.49956C360.037 1.8004 359.478 1.17114 358.709 1.17114H335.846Z" fill="white"/>
<path d="M418.137 83.323C418.837 83.323 419.466 82.7637 419.466 81.9946V2.49956C419.466 1.8004 418.906 1.17114 418.137 1.17114H395.275C394.576 1.17114 393.946 1.73048 393.946 2.49956V81.9946C393.946 82.6938 394.506 83.323 395.275 83.323H418.137Z" fill="white"/>
<path d="M206.081 26.1313L238.452 82.2043C238.802 82.8336 239.571 83.323 240.34 83.323H267.048C268.167 83.323 268.586 82.5539 268.027 81.5751L221.323 0.681686C220.833 -0.227229 219.994 -0.227229 219.435 0.681686L206.011 23.9639C205.661 24.5931 205.661 25.4321 206.081 26.1313Z" fill="white"/>
<path d="M204.963 83.323C205.662 83.323 206.291 82.7636 206.291 81.9945V59.0619C206.291 58.3628 205.732 57.7335 204.963 57.7335H182.1C181.401 57.7335 180.771 58.2928 180.771 59.0619V81.9246C180.771 82.6238 181.331 83.253 182.1 83.253H204.963V83.323Z" fill="white"/>
</svg>
